{
  "accessors": [
    {
      "bufferView": 2,
      "componentType": 5126,
      "count": 805,
      "max": [
        7.798120975494385,
        1.0191789865493774,
        21.960336685180664
      ],
      "min": [
        -10.880332946777344,
        -1.0191789865493774,
        1.455430030822754
      ],
      "type": "VEC3"
    },
    {
      "bufferView": 2,
      "byteOffset": 9660,
      "componentType": 5126,
      "count": 805,
      "max": [
        0.9412671327590942,
        1.0,
        0.9412675499916077
      ],
      "min": [
        -0.9412671327590942,
        -1.0,
        -1.0
      ],
      "type": "VEC3"
    },
    {
      "bufferView": 3,
      "componentType": 5126,
      "count": 805,
      "max": [
        0.8872364163398743,
        0.9352235198020935,
        0.9697518944740295,
        1.0
      ],
      "min": [
        -0.7801505327224731,
        -1.0,
        -0.9665712118148804,
        -1.0
      ],
      "type": "VEC4"
    },
    {
      "bufferView": 1,
      "componentType": 5126,
      "count": 805,
      "max": [
        1.0,
        0.5585910081863403
      ],
      "min": [
        0.0,
        0.0
      ],
      "type": "VEC2"
    },
    {
      "bufferView": 0,
      "componentType": 5125,
      "count": 3096,
      "type": "SCALAR"
    },
    {
      "bufferView": 2,
      "byteOffset": 19320,
      "componentType": 5126,
      "count": 1097,
      "max": [
        1.4911359548568726,
        2.5971291065216064,
        1.4917010068893433
      ],
      "min": [
        -4.424017906188965,
        -2.597132921218872,
        -21.93614387512207
      ],
      "type": "VEC3"
    },
    {
      "bufferView": 2,
      "byteOffset": 32484,
      "componentType": 5126,
      "count": 1097,
      "max": [
        0.9999882578849792,
        0.9999940991401672,
        0.9999924898147583
      ],
      "min": [
        -0.9999181032180786,
        -0.9999940991401672,
        -0.9996299743652344
      ],
      "type": "VEC3"
    },
    {
      "bufferView": 3,
      "byteOffset": 12880,
      "componentType": 5126,
      "count": 1097,
      "max": [
        0.9999430775642395,
        0.9999976754188538,
        0.9869086146354675,
        1.0
      ],
      "min": [
        -0.999931275844574,
        -1.0,
        -0.9418015480041504,
        1.0
      ],
      "type": "VEC4"
    },
    {
      "bufferView": 1,
      "byteOffset": 6440,
      "componentType": 5126,
      "count": 1097,
      "max": [
        0.9685490131378174,
        1.0
      ],
      "min": [
        0.0,
        0.0
      ],
      "type": "VEC2"
    },
    {
      "bufferView": 0,
      "byteOffset": 12384,
      "componentType": 5125,
      "count": 4812,
      "type": "SCALAR"
    }
  ],
  "asset": {
    "extras": {
      "author": "Hüseyin Demirci (https://sketchfab.com/Dudzy)",
      "license": "CC-BY-4.0 (http://creativecommons.org/licenses/by/4.0/)",
      "source": "https://sketchfab.com/3d-models/war-axe-ce1620a69a5c4857bb7e33183bde70c5",
      "title": "War Axe"
    },
    "generator": "Sketchfab-16.17.0",
    "version": "2.0"
  },
  "bufferViews": [
    {
      "buffer": 0,
      "byteLength": 31632,
      "name": "floatBufferViews",
      "target": 34963
    },
    {
      "buffer": 0,
      "byteLength": 15216,
      "byteOffset": 31632,
      "byteStride": 8,
      "name": "floatBufferViews",
      "target": 34962
    },
    {
      "buffer": 0,
      "byteLength": 45648,
      "byteOffset": 46848,
      "byteStride": 12,
      "name": "floatBufferViews",
      "target": 34962
    },
    {
      "buffer": 0,
      "byteLength": 30432,
      "byteOffset": 92496,
      "byteStride": 16,
      "name": "floatBufferViews",
      "target": 34962
    }
  ],
  "buffers": [
    {
      "byteLength": 122928,
      "uri": "scene.bin"
    }
  ],
  "images": [
    {
      "uri": "textures/material_baseColor.jpeg"
    },
    {
      "uri": "textures/material_metallicRoughness.png"
    },
    {
      "uri": "textures/material_normal.png"
    },
    {
      "uri": "textures/lambert2SG_baseColor.jpeg"
    },
    {
      "uri": "textures/lambert2SG_metallicRoughness.png"
    },
    {
      "uri": "textures/lambert2SG_normal.png"
    }
  ],
  "materials": [
    {
      "doubleSided": true,
      "name": "material",
      "normalTexture": {
        "index": 2
      },
      "occlusionTexture": {
        "index": 1
      },
      "pbrMetallicRoughness": {
        "baseColorTexture": {
          "index": 0
        },
        "metallicRoughnessTexture": {
          "index": 1
        }
      }
    },
    {
      "doubleSided": true,
      "name": "lambert2SG",
      "normalTexture": {
        "index": 5
      },
      "occlusionTexture": {
        "index": 4
      },
      "pbrMetallicRoughness": {
        "baseColorTexture": {
          "index": 3
        },
        "metallicRoughnessTexture": {
          "index": 4
        }
      }
    }
  ],
  "meshes": [
    {
      "name": "Object_0",
      "primitives": [
        {
          "attributes": {
            "NORMAL": 1,
            "POSITION": 0,
            "TANGENT": 2,
            "TEXCOORD_0": 3
          },
          "indices": 4,
          "material": 0,
          "mode": 4
        }
      ]
    },
    {
      "name": "Object_1",
      "primitives": [
        {
          "attributes": {
            "NORMAL": 6,
            "POSITION": 5,
            "TANGENT": 7,
            "TEXCOORD_0": 8
          },
          "indices": 9,
          "material": 1,
          "mode": 4
        }
      ]
    }
  ],
  "nodes": [
    {
      "children": [
        1
      ],
      "matrix": [
        1.0,
        0.0,
        0.0,
        0.0,
        0.0,
        2.220446049250313e-16,
        -1.0,
        0.0,
        0.0,
        1.0,
        2.220446049250313e-16,
        0.0,
        0.0,
        0.0,
        0.0,
        1.0
      ],
      "name": "Sketchfab_model"
    },
    {
      "children": [
        2,
        3
      ],
      "name": "Low.obj.cleaner.materialmerger.gles"
    },
    {
      "mesh": 0,
      "name": "Object_2"
    },
    {
      "mesh": 1,
      "name": "Object_3"
    }
  ],
  "samplers": [
    {
      "magFilter": 9729,
      "minFilter": 9987,
      "wrapS": 10497,
      "wrapT": 10497
    }
  ],
  "scene": 0,
  "scenes": [
    {
      "name": "Sketchfab_Scene",
      "nodes": [
        0
      ]
    }
  ],
  "textures": [
    {
      "sampler": 0,
      "source": 0
    },
    {
      "sampler": 0,
      "source": 1
    },
    {
      "sampler": 0,
      "source": 2
    },
    {
      "sampler": 0,
      "source": 3
    },
    {
      "sampler": 0,
      "source": 4
    },
    {
      "sampler": 0,
      "source": 5
    }
  ]
}
